<svg width="288" height="35" viewBox="0 0 288 35" fill="none" xmlns="http://www.w3.org/2000/svg">
<path d="M26.4262 0.399998H33.2422V34H26.6662V12.208L17.2102 27.808H16.4422L6.98619 12.256V34H0.362188V0.399998H7.17819L16.8262 16.288L26.4262 0.399998ZM57.4548 12.832V10H63.6468V34H57.4548V31.168C55.5988 33.504 52.9908 34.672 49.6308 34.672C46.4308 34.672 43.6788 33.456 41.3748 31.024C39.1028 28.56 37.9668 25.552 37.9668 22C37.9668 18.48 39.1028 15.488 41.3748 13.024C43.6788 10.56 46.4308 9.328 49.6308 9.328C52.9908 9.328 55.5988 10.496 57.4548 12.832ZM46.0308 26.896C47.2788 28.144 48.8628 28.768 50.7828 28.768C52.7028 28.768 54.2868 28.144 55.5348 26.896C56.8148 25.616 57.4548 23.984 57.4548 22C57.4548 20.016 56.8148 18.4 55.5348 17.152C54.2868 15.872 52.7028 15.232 50.7828 15.232C48.8628 15.232 47.2788 15.872 46.0308 17.152C44.7828 18.4 44.1588 20.016 44.1588 22C44.1588 23.984 44.7828 25.616 46.0308 26.896ZM80.6857 34.672C77.0697 34.672 74.0457 33.456 71.6137 31.024C69.2137 28.592 68.0137 25.584 68.0137 22C68.0137 18.416 69.2137 15.408 71.6137 12.976C74.0457 10.544 77.0697 9.328 80.6857 9.328C83.0217 9.328 85.1497 9.888 87.0697 11.008C88.9897 12.128 90.4457 13.632 91.4377 15.52L86.1097 18.64C85.6297 17.648 84.8937 16.864 83.9017 16.288C82.9417 15.712 81.8537 15.424 80.6377 15.424C78.7817 15.424 77.2457 16.048 76.0297 17.296C74.8137 18.512 74.2057 20.08 74.2057 22C74.2057 23.856 74.8137 25.424 76.0297 26.704C77.2457 27.92 78.7817 28.528 80.6377 28.528C81.8857 28.528 82.9897 28.256 83.9497 27.712C84.9417 27.136 85.6777 26.352 86.1577 25.36L91.5337 28.432C90.4777 30.352 88.9737 31.872 87.0217 32.992C85.1017 34.112 82.9897 34.672 80.6857 34.672ZM108.777 9.328C112.009 9.328 114.761 10.56 117.033 13.024C119.337 15.488 120.489 18.48 120.489 22C120.489 25.584 119.337 28.592 117.033 31.024C114.793 33.456 112.041 34.672 108.777 34.672C105.417 34.672 102.825 33.504 101.001 31.168V34H94.8086V0.399998H101.001V12.832C102.825 10.496 105.417 9.328 108.777 9.328ZM102.873 26.896C104.121 28.144 105.705 28.768 107.625 28.768C109.545 28.768 111.129 28.144 112.377 26.896C113.657 25.616 114.297 23.984 114.297 22C114.297 20.016 113.657 18.4 112.377 17.152C111.129 15.872 109.545 15.232 107.625 15.232C105.705 15.232 104.121 15.872 102.873 17.152C101.625 18.4 101.001 20.016 101.001 22C101.001 23.984 101.625 25.616 102.873 26.896ZM145.303 31.024C142.871 33.456 139.863 34.672 136.279 34.672C132.695 34.672 129.687 33.456 127.255 31.024C124.823 28.592 123.607 25.584 123.607 22C123.607 18.448 124.823 15.456 127.255 13.024C129.719 10.56 132.727 9.328 136.279 9.328C139.831 9.328 142.839 10.56 145.303 13.024C147.767 15.488 148.999 18.48 148.999 22C148.999 25.552 147.767 28.56 145.303 31.024ZM131.623 26.752C132.871 28 134.423 28.624 136.279 28.624C138.135 28.624 139.687 28 140.935 26.752C142.183 25.504 142.807 23.92 142.807 22C142.807 20.08 142.183 18.496 140.935 17.248C139.687 16 138.135 15.376 136.279 15.376C134.423 15.376 132.871 16 131.623 17.248C130.407 18.528 129.799 20.112 129.799 22C129.799 23.888 130.407 25.472 131.623 26.752ZM173.803 31.024C171.371 33.456 168.363 34.672 164.779 34.672C161.195 34.672 158.187 33.456 155.755 31.024C153.323 28.592 152.107 25.584 152.107 22C152.107 18.448 153.323 15.456 155.755 13.024C158.219 10.56 161.227 9.328 164.779 9.328C168.331 9.328 171.339 10.56 173.803 13.024C176.267 15.488 177.499 18.48 177.499 22C177.499 25.552 176.267 28.56 173.803 31.024ZM160.123 26.752C161.371 28 162.923 28.624 164.779 28.624C166.635 28.624 168.187 28 169.435 26.752C170.683 25.504 171.307 23.92 171.307 22C171.307 20.08 170.683 18.496 169.435 17.248C168.187 16 166.635 15.376 164.779 15.376C162.923 15.376 161.371 16 160.123 17.248C158.907 18.528 158.299 20.112 158.299 22C158.299 23.888 158.907 25.472 160.123 26.752ZM194.047 21.856L203.983 34H196.783L188.047 23.104V34H181.855V0.399998H188.047V20.56L196.303 10H203.695L194.047 21.856ZM219.362 0.399998H231.89C235.09 0.399998 237.81 1.488 240.05 3.664C242.258 5.84 243.362 8.512 243.362 11.68C243.362 14.848 242.258 17.52 240.05 19.696C237.81 21.872 235.09 22.96 231.89 22.96H225.986V34H219.362V0.399998ZM225.986 16.768H231.89C233.298 16.768 234.466 16.288 235.394 15.328C236.322 14.336 236.786 13.12 236.786 11.68C236.786 10.208 236.322 8.992 235.394 8.032C234.466 7.072 233.298 6.592 231.89 6.592H225.986V16.768ZM253.063 10V14.128C253.607 12.624 254.535 11.488 255.847 10.72C257.159 9.92 258.663 9.52 260.359 9.52V16.432C258.471 16.176 256.775 16.56 255.271 17.584C253.799 18.576 253.063 20.224 253.063 22.528V34H246.871V10H253.063ZM283.538 31.024C281.106 33.456 278.098 34.672 274.514 34.672C270.93 34.672 267.922 33.456 265.49 31.024C263.058 28.592 261.842 25.584 261.842 22C261.842 18.448 263.058 15.456 265.49 13.024C267.954 10.56 270.962 9.328 274.514 9.328C278.066 9.328 281.074 10.56 283.538 13.024C286.002 15.488 287.234 18.48 287.234 22C287.234 25.552 286.002 28.56 283.538 31.024ZM269.858 26.752C271.106 28 272.658 28.624 274.514 28.624C276.37 28.624 277.922 28 279.17 26.752C280.418 25.504 281.042 23.92 281.042 22C281.042 20.08 280.418 18.496 279.17 17.248C277.922 16 276.37 15.376 274.514 15.376C272.658 15.376 271.106 16 269.858 17.248C268.642 18.528 268.034 20.112 268.034 22C268.034 23.888 268.642 25.472 269.858 26.752Z" fill="black"/>
</svg>
